<?xml version="1.0" encoding="UTF-8"?> <!--Uploaded to: SVG Repo, www.svgrepo.com, Generator: SVG Repo Mixer Tools--> <svg xmlns="http://www.w3.org/2000/svg" xml:space="preserve" viewBox="0 0 512 512" fill="#3c5458"> <path d="M469 49H362c-6 0-10 5-10 10v188h-70V10c0-5-5-10-10-10h-62c-5 0-10 5-10 10v143h-23V97a10 10 0 0 0-20 0v56h-11c-6 0-10 5-10 11v49H84v-38a10 10 0 0 0-21 0v38H43c-6 0-10 5-10 10v279c0 5 4 10 10 10h426c6 0 10-5 10-10V59c0-5-4-10-10-10zM136 492H53V234h83v258zm125 0H156V174h105v318zm0-339h-41V20h41v133zm91 339h-70V267h70v225zm107 0h-87V69h87v423z"></path> <path d="M186 199c-5 0-10 5-10 10v14a10 10 0 1 0 20 0v-14c0-5-4-10-10-10zm44 0c-6 0-10 5-10 10v14a10 10 0 0 0 20 0v-14c0-5-5-10-10-10zm11-94c-6 0-11 5-11 11v13a10 10 0 0 0 21 0v-13c0-6-5-11-10-11zm0-53c-6 0-11 5-11 10v14a10 10 0 0 0 21 0V62c0-5-5-10-10-10zm-55 206c-5 0-10 5-10 11v13a10 10 0 1 0 20 0v-13c0-6-4-11-10-11zm44 0c-6 0-10 5-10 11v13a10 10 0 0 0 20 0v-13c0-6-5-11-10-11zm-44 56c-5 0-10 4-10 10v13a10 10 0 1 0 20 0v-13c0-6-4-10-10-10zm44 0c-6 0-10 4-10 10v13a10 10 0 0 0 20 0v-13c0-6-5-10-10-10zm-44 59c-5 0-10 5-10 10v14a10 10 0 1 0 20 0v-14c0-5-4-10-10-10zm44 0c-6 0-10 5-10 10v14a10 10 0 0 0 20 0v-14c0-5-5-10-10-10zm-44 59c-5 0-10 5-10 11v13a10 10 0 1 0 20 0v-13c0-6-4-11-10-11zm44 0c-6 0-10 5-10 11v13a10 10 0 0 0 20 0v-13c0-6-5-11-10-11zm168-233c-5 0-10 5-10 10v14a10 10 0 0 0 21 0v-14c0-5-5-10-11-10zm38 0c-5 0-10 5-10 10v14a10 10 0 0 0 21 0v-14c0-5-5-10-11-10zm-38 59c-5 0-10 5-10 11v13a10 10 0 0 0 21 0v-13c0-6-5-11-11-11zm38 0c-5 0-10 5-10 11v13a10 10 0 0 0 21 0v-13c0-6-5-11-11-11zm-38 56c-5 0-10 4-10 10v13a10 10 0 0 0 21 0v-13c0-6-5-10-11-10zm38 0c-5 0-10 4-10 10v13a10 10 0 0 0 21 0v-13c0-6-5-10-11-10zM398 86c-5 0-10 4-10 10v13a10 10 0 0 0 21 0V96c0-6-5-10-11-10zm38 0c-5 0-10 4-10 10v13a10 10 0 0 0 21 0V96c0-6-5-10-11-10zm-38 55c-5 0-10 4-10 10v14a10 10 0 0 0 21 0v-14c0-6-5-10-11-10zm38 0c-5 0-10 4-10 10v14a10 10 0 0 0 21 0v-14c0-6-5-10-11-10zm-38 232c-5 0-10 5-10 10v14a10 10 0 0 0 21 0v-14c0-5-5-10-11-10zm38 0c-5 0-10 5-10 10v14a10 10 0 0 0 21 0v-14c0-5-5-10-11-10zm-38 59c-5 0-10 5-10 11v13a10 10 0 0 0 21 0v-13c0-6-5-11-11-11zm38 0c-5 0-10 5-10 11v13a10 10 0 0 0 21 0v-13c0-6-5-11-11-11zM113 253H76a10 10 0 0 0 0 21h37a10 10 0 1 0 0-21zm0 40H76a10 10 0 0 0 0 20h37a10 10 0 1 0 0-20zm0 41H76a10 10 0 0 0 0 20h37a10 10 0 1 0 0-20zm0 39H76a10 10 0 0 0 0 21h37a10 10 0 1 0 0-21zm0 41H76a10 10 0 0 0 0 20h37a10 10 0 1 0 0-20zm0 40H76a10 10 0 0 0 0 20h37a10 10 0 1 0 0-20zm216-172h-26a10 10 0 0 0 0 20h26a10 10 0 0 0 0-20zm0 48h-26a10 10 0 0 0 0 20h26a10 10 0 0 0 0-20zm0 48h-26a10 10 0 0 0 0 21h26a10 10 0 0 0 0-21zm0 51h-26a10 10 0 0 0 0 20h26a10 10 0 0 0 0-20zM167 44c-5 0-10 4-10 10v12a10 10 0 0 0 20 0V54c0-6-4-10-10-10z"></path> </svg> 