<?xml version="1.0" encoding="UTF-8"?> <!--Uploaded to: SVG Repo, www.svgrepo.com, Generator: SVG Repo Mixer Tools--> <svg xmlns="http://www.w3.org/2000/svg" xml:space="preserve" viewBox="0 0 401 401" fill="#3c5458"> <path d="m356 121 18-7a8 8 0 1 1 5 15l-18 7a8 8 0 0 1-10-5c-2-4 0-8 5-10zm-22-8a8 8 0 0 0 10-4l8-18a8 8 0 1 0-14-7l-8 18c-2 4-1 9 4 11zm-74-20c-20-14-41-27-64-37l-32 71a8 8 0 0 1-15-6l33-72c-24-10-47-18-71-23 11 51 14 106 7 136a8 8 0 1 1-15-3c7-30 3-86-9-137-19-4-39-6-58-6l-1 3c18 25 33 70 42 124 6 39 9 88-1 115h1a174 174 0 0 0 31 14c10-16 32-38 62-59 34-25 72-45 104-57a8 8 0 1 1 5 15c-30 11-68 32-100 55-31 22-53 44-59 59-2 4-6 6-10 5h-1l-44 96a25 25 0 0 1-33 13c-13-6-19-21-13-34l44-97h-1c-3-2-5-7-3-10 9-18 10-63 2-113-8-53-24-99-41-120-2-2-3-6-1-8l5-12c1-3 4-5 7-5a372 372 0 0 1 165 38c37 17 71 38 100 63a8 8 0 0 1-10 13l-12-10c-47 24-91 58-109 83a8 8 0 1 1-13-9c19-26 62-59 108-85zM33 371a10 10 0 0 0 18 8l43-95a192 192 0 0 1-17-8l-44 95zm273-198c-4-2-9 0-11 4l-8 18a8 8 0 0 0 15 6l8-17c2-4 0-9-4-11zm72-12-17-8a8 8 0 0 0-7 14l17 8a8 8 0 0 0 11-4c2-4 0-8-4-10zm-36 18a8 8 0 1 0-15 5l6 19a8 8 0 1 0 15-6l-6-18zm-13-11a27 27 0 1 1-19-50 27 27 0 0 1 19 50zm1-21a11 11 0 0 0-6-14 11 11 0 0 0-15 14 11 11 0 0 0 15 6l6-6z"></path> </svg> 