<?xml version="1.0" encoding="UTF-8"?> <!--Uploaded to: SVG Repo, www.svgrepo.com, Generator: SVG Repo Mixer Tools--> <svg xmlns="http://www.w3.org/2000/svg" xml:space="preserve" viewBox="0 0 435.5 435.5" fill="#3c5458"> <path d="m349 238 51-158-51-16V31H247L149 0l-10 31H86v166L36 355l50 17v32h103l97 32 10-32h53V238zm32-148-32 99V80l32 10zM159 19l39 12h-43l4-12zM54 346l32-99v109l-32-10zm223 71-39-13h43l-4 13zm57-28H101V46h233v343z"></path> <path d="M129 79h179v15H129zm0 38h179v15H129zm0 37h179v15H129zm0 75h179v15H129zm-1 75h178v15H128zm0-37h178v15H128zm0-75h178v15H128zm1 150h179v15H129z"></path> </svg> 