<?xml version="1.0" encoding="UTF-8"?> <!--Uploaded to: SVG Repo, www.svgrepo.com, Generator: SVG Repo Mixer Tools--> <svg xmlns="http://www.w3.org/2000/svg" xml:space="preserve" viewBox="0 0 425.4 425.4" fill="#3c5458"> <path d="M398 135c-8-7-16-13-26-18a64 64 0 1 0-73 0c-22 8-41 24-53 45-4 6-11 10-18 10h-31c-7 0-14-4-17-10-12-21-31-37-53-45a64 64 0 1 0-74 0 87 87 0 0 0-51 80v71c0 15 10 27 23 31v101c0 14 11 25 25 25h78c14 0 26-11 26-25V220c14 10 32 15 50 15h17a89 89 0 0 0 51-15v180c0 14 11 25 25 25h78c14 0 25-11 25-25V299c14-4 23-16 23-31v-71c0-23-9-45-25-62zM336 19a45 45 0 1 1 0 91 45 45 0 0 1 0-91zM44 64a45 45 0 1 1 91 0 45 45 0 0 1-91 0zm160 152c-20 0-39-8-53-23-2-3-5-4-9-3s-7 5-7 9v201c0 4-3 6-7 6h-24c-3 0-5-2-5-5v-94c0-5-4-10-9-10-6 0-10 4-10 9v95c0 3-3 5-6 5H50c-3 0-6-2-6-6V291c0-5-4-9-9-9-8 0-14-6-14-14v-71c0-37 31-69 69-68 30 0 58 16 73 43 7 12 20 19 34 19h14c6 0 12 5 13 12 0 7-6 13-13 13h-7zm200 52c0 8-6 14-13 14-5 0-10 4-10 9v109c0 4-3 6-6 6h-24c-3 0-6-2-6-5v-94c0-5-3-10-8-10-6 0-11 4-11 9v95c0 3-2 5-5 5h-24c-4 0-6-2-6-6V199c0-3-2-7-5-8-4-2-9-2-12 2a70 70 0 0 1-33 20 31 31 0 0 0-2-23c10-3 18-10 23-19 15-26 44-42 74-42a68 68 0 0 1 68 68v71z"></path> </svg> 