<?xml version="1.0" encoding="UTF-8"?>
<svg xmlns="http://www.w3.org/2000/svg" viewBox="79.97 523.7 343.73 69.13">
    <path fill="#fff" fill-rule="evenodd"
          d="M86.157 567.934v-26.642c0-2.41-.305-4.105-.916-5.095-.62-.99-1.642-1.494-3.053-1.537-.968-.02-1.579-.084-1.842-.168a.536.536 0 0 1-.379-.547c0-.264.085-.443.274-.537.19-.095.495-.137.927-.137 1.663 0 4.168.032 7.526.095 3.347.063 5.853.084 7.516.084 1.694 0 4.19-.021 7.494-.084 3.316-.063 5.758-.095 7.348-.095.674 0 1.01.242 1.01.737v7.158c0 .8-.231 1.2-.705 1.2-.516 0-.8-.295-.863-.895-.242-2.61-1.053-4.369-2.421-5.274-1.369-.905-3.895-1.358-7.569-1.358-3.6 0-5.8.053-6.59.158-.789.106-1.189.41-1.189.927v17.115c1.242 0 2.39-.094 3.443-.284a14.068 14.068 0 0 0 3.157-.936c1.053-.443 1.906-1.095 2.548-1.969.652-.874 1.01-1.947 1.095-3.2.063-.863.158-1.421.294-1.695a.699.699 0 0 1 .664-.4c.536 0 .8.263.8.769 0 .884-.032 2.2-.095 3.947a112.915 112.915 0 0 0-.084 3.948c0 .884.02 2.2.084 3.947.063 1.747.094 3.063.094 3.947 0 .495-.22.748-.673.748-.253 0-.453-.137-.6-.4-.158-.274-.316-.843-.484-1.727-.39-1.894-1.274-3.22-2.653-3.979-1.38-.768-3.19-1.147-5.421-1.147h-2.169v11.631c0 1.022.043 1.874.116 2.558.074.674.21 1.358.432 2.032.21.684.537 1.21.968 1.61.432.39 1 .737 1.695 1.064.705.315 1.568.537 2.61.673 1.032.137 2.274.2 3.716.2 1.969 0 3.674-.158 5.116-.494 1.442-.327 2.6-.81 3.474-1.442.873-.642 1.547-1.358 2.02-2.148.464-.79.811-1.726 1.011-2.79.127-.662.264-1.115.421-1.357.148-.253.369-.368.663-.368.39 0 .58.252.58.768 0 .39-.064 1.4-.2 3.042-.127 1.632-.2 2.769-.2 3.4v2.158c0 .537-.337.81-1.011.81-1.832 0-4.579-.031-8.242-.094-3.653-.063-6.4-.095-8.232-.095-1.831 0-4.579.032-8.242.095a527.63 527.63 0 0 1-8.253.094c-.431 0-.737-.052-.926-.147-.19-.084-.274-.274-.274-.537s.127-.442.38-.537c.262-.094.873-.147 1.841-.168 1.41-.042 2.432-.558 3.053-1.547.61-.98.916-2.685.916-5.085zm44.232-14.22 6.315 15.852c1.485-3.19 3.558-8.19 6.232-15.021.474-1.21.705-2.264.705-3.169 0-1.073-.736-1.736-2.22-2.01-.958-.126-1.443-.38-1.443-.769 0-.284.21-.431.642-.431.358 0 1.021.031 2.022.094 1 .064 1.757.095 2.273.095a33.5 33.5 0 0 0 2.042-.095c.937-.063 1.6-.094 1.99-.094.41 0 .62.147.62.431 0 .306-.442.569-1.326.769-.694.168-1.252.495-1.663.99-.41.494-.926 1.494-1.547 2.989-4.705 11.695-9.105 22.147-13.2 31.337-1.558 3.579-2.758 5.926-3.59 7.063-.831 1.126-1.57 1.085-2.77 1.085-2.648 0-3.152-3.114-1.989-4.06.663-.536 2.717.007 3.59-.488.874-.484 1.433-.916 1.675-1.263.02 0 .442-.843 1.273-2.527a140.731 140.731 0 0 0 2.474-5.379c.831-1.905 1.263-3.084 1.284-3.536l-10.147-23.99c-.242-.621-.527-1.074-.832-1.39-.305-.305-.705-.526-1.2-.642-.042-.02-.242-.073-.59-.137-.347-.073-.6-.168-.757-.263a.517.517 0 0 1-.232-.431c0-.38.284-.558.832-.558.684 0 1.684.031 3 .094 1.316.064 2.305.095 2.99.095.631 0 1.6-.031 2.894-.095a65.06 65.06 0 0 1 2.842-.094c.548 0 .832.179.832.558a.65.65 0 0 1-.032.21c-.02.063-.063.116-.105.169a1.36 1.36 0 0 1-.147.126.587.587 0 0 1-.2.095c-.085.031-.169.052-.242.073a1.768 1.768 0 0 1-.306.042c-.136.01-.242.021-.316.032-.063.01-.189.032-.347.053a3.414 3.414 0 0 1-.368.031c-1.116.106-1.674.58-1.674 1.442 0 .748.242 1.653.716 2.716zm27.842 17v-12.37c0-1.505-.052-2.736-.168-3.684-.116-.957-.295-1.663-.537-2.115-.253-.453-.474-.758-.664-.916-.2-.147-.484-.295-.852-.442-.221-.084-.663-.169-1.326-.242a14.676 14.676 0 0 1-1.664-.295c-.452-.116-.673-.284-.673-.516 0-.074.02-.158.053-.232a.665.665 0 0 1 .2-.178c.094-.053.189-.095.284-.137.094-.042.22-.084.4-.127.179-.042.326-.073.463-.105.137-.031.326-.073.568-.115.253-.032.453-.074.621-.116 1.21-.253 2.38-.527 3.495-.821 1.126-.295 1.958-.527 2.505-.674.537-.158.864-.232.969-.232.105 0 .19.01.263.043a.509.509 0 0 1 .168.105.443.443 0 0 1 .095.2c.021.095.032.168.042.22a3.263 3.263 0 0 1 .042.569l.59 5.432h.126c.632-1.484 1.737-2.842 3.295-4.074 1.568-1.232 3.474-1.853 5.737-1.853 1.831 0 3.137.316 3.916.958.779.643 1.179 1.432 1.179 2.38 0 .547-.19 1.073-.58 1.557-.378.474-.978.716-1.8.716a1.96 1.96 0 0 1-1.42-.568 3.802 3.802 0 0 1-.864-1.232c-.179-.442-.484-.853-.894-1.232-.411-.378-.916-.568-1.506-.568-1.61 0-3.094.758-4.463 2.274-1.368 1.526-2.042 3.505-2.042 5.958v12.431c0 1.58.179 2.621.537 3.126.358.506.979.811 1.863.906.842.084 1.39.179 1.653.284.252.095.379.242.379.431 0 .327-.337.495-1.011.495-.358 0-1.326-.031-2.916-.094-1.6-.063-2.79-.095-3.59-.095-.789 0-1.968.032-3.568.095-1.59.063-2.61.094-3.063.094-.39 0-.59-.19-.59-.558 0-.305.443-.526 1.327-.652 1.337-.18 2.242-.569 2.716-1.169.473-.6.705-1.547.705-2.863zm26.705 0V553.47c0-1.053.047-2.182-.265-2.605-.309-.419-1.043-.832-2.095-.513l-.88.266c-1.579.254-.502-1.19.157-1.656 1.8-1.298 4.183.056 5.196-.311 3.57-2.739 6.673-3.27 7.672-3.027-.096.1-1.562.456-2.954 2.06-1.122 1.252-1.24 1.6-1.24 1.787l-.033 21.241c-.002 1.579.18 2.621.537 3.126.358.506.98.811 1.863.906.843.084 1.39.179 1.653.284.253.095.379.242.379.431 0 .327-.337.495-1.01.495-.348 0-1.327-.031-2.916-.094a98.851 98.851 0 0 0-3.59-.095c-.79 0-1.968.032-3.568.095-1.59.063-2.61.094-3.063.094-.39 0-.59-.19-.59-.558 0-.305.442-.526 1.326-.652 1.337-.18 2.243-.569 2.716-1.169.474-.6.705-1.547.705-2.863zm14.253-15.675c0-2.357.78-4.231 2.358-5.6 1.569-1.357 3.547-2.042 5.937-2.042.695 0 1.726.169 3.084.516 1.063.38 1.706.558 1.906.558.168 0 .61-.2 1.315-.6.706-.4 1.085-.6 1.127-.6.263 0 .4.116.4.337 0 .042-.032.4-.095 1.063a19.268 19.268 0 0 0-.095 1.779c0 .631.042 1.42.126 2.358.085.937.127 1.431.127 1.495 0 .652-.242.989-.716.989-.39 0-.726-.358-1.01-1.053a28.544 28.544 0 0 0-.895-1.968c-.232-.432-.59-.979-1.084-1.621-.495-.653-1.074-1.116-1.758-1.41-.674-.285-1.464-.432-2.369-.432-3.042 0-4.568 1.263-4.568 3.768 0 .821.273 1.569.82 2.253.537.674 1.243 1.263 2.106 1.768.863.506 1.821 1 2.874 1.485a42.622 42.622 0 0 1 3.147 1.62c1.042.59 2 1.253 2.863 1.97.863.715 1.569 1.641 2.116 2.757.547 1.126.81 2.368.81 3.747 0 1.01-.178 2-.536 2.98a9.097 9.097 0 0 1-1.6 2.726c-.716.842-1.674 1.526-2.884 2.052-1.211.527-2.59.79-4.137.79a10.8 10.8 0 0 1-3.053-.432c-.958-.295-1.779-.579-2.432-.863-.663-.295-1.136-.432-1.42-.432-.127 0-.485.221-1.095.664-.611.442-.969.663-1.095.663-.221 0-.337-.147-.337-.432l-.253-6.695c0-.189-.01-.463-.031-.82-.01-.358-.021-.632-.021-.811 0-.39.19-.59.579-.59.295 0 .537.232.747.706.158.537.284.968.38 1.284.094.316.273.779.526 1.39.252.6.505 1.094.757 1.473.242.39.58.821 1 1.316.421.495.874.874 1.358 1.158a8.699 8.699 0 0 0 1.758.726c.684.2 1.432.305 2.232.305 1.358 0 2.579-.41 3.674-1.22 1.084-.811 1.63-1.948 1.63-3.4 0-.948-.262-1.8-.789-2.57-.515-.757-1.2-1.41-2.042-1.957a33.503 33.503 0 0 0-2.779-1.59 66.366 66.366 0 0 1-3.042-1.631c-1.01-.58-1.947-1.2-2.79-1.885-.841-.673-1.526-1.536-2.052-2.568-.516-1.042-.779-2.2-.779-3.474zm41.664.59c0-3.21.536-6.242 1.6-9.095 1.073-2.863 2.557-5.337 4.473-7.432 1.906-2.105 4.253-3.757 7.032-4.968 2.779-1.21 5.8-1.821 9.063-1.821 1.937 0 3.769.19 5.495.558 1.726.368 3 .726 3.821 1.063.821.337 1.779.79 2.863 1.337.358.21.674.316.958.316.453 0 .748-.21.895-.621 0-.021.032-.105.073-.242.053-.148.095-.253.116-.316.021-.063.053-.158.106-.295.052-.126.094-.232.136-.284a2.02 2.02 0 0 1 .169-.221.614.614 0 0 1 .22-.168.563.563 0 0 1 .233-.043c.389 0 .578.38.578 1.137 0 .558-.031 2.021-.105 4.41a664.21 664.21 0 0 0-.137 4.937c-.042.737-.094 1.211-.158 1.432-.063.21-.22.327-.494.327a.64.64 0 0 1-.61-.369c-.127-.253-.338-.884-.653-1.916-.158-.558-.295-1-.411-1.326-.116-.327-.295-.79-.526-1.39-.243-.6-.463-1.084-.695-1.463a17.668 17.668 0 0 0-.905-1.368 7.075 7.075 0 0 0-1.19-1.327c-.41-.357-.916-.715-1.494-1.094a8.423 8.423 0 0 0-1.885-.916 15.612 15.612 0 0 0-2.316-.558c-.873-.137-1.81-.21-2.82-.21-10.4 0-15.6 7.158-15.6 21.463 0 2.631.21 5.02.642 7.19.43 2.157 1.031 3.957 1.778 5.389.748 1.442 1.59 2.684 2.527 3.737.937 1.042 1.957 1.852 3.073 2.42 1.106.559 2.169.98 3.19 1.232 1.01.253 2.042.39 3.063.39a22.41 22.41 0 0 0 3.242-.232 13.197 13.197 0 0 0 3.084-.895c1.042-.442 1.948-1.02 2.695-1.715.748-.695 1.369-1.632 1.842-2.81.463-1.17.706-2.517.706-4.032 0-.864-.021-1.537-.043-2.022a9.654 9.654 0 0 0-.252-1.589c-.137-.58-.337-1.01-.6-1.316-.263-.295-.653-.558-1.158-.779-.505-.231-1.127-.368-1.863-.4-.885-.063-1.432-.137-1.653-.22-.21-.085-.326-.264-.326-.559 0-.494.305-.737.895-.737.905 0 2.273.032 4.105.095 1.831.063 3.2.095 4.105.095.8 0 2-.032 3.6-.095 1.61-.063 2.81-.095 3.61-.095.327 0 .57.032.717.106.136.073.21.22.21.452 0 .327-.084.537-.263.632-.169.095-.484.158-.937.2-.621.063-1.147.21-1.579.463-.432.242-.758.526-.979.842-.232.326-.41.758-.526 1.316a8.736 8.736 0 0 0-.221 1.495 38.214 38.214 0 0 0-.032 1.736c0 1.243.084 3.2.253 5.895-.99 0-2.032.169-3.137.495-1.095.326-2.021.674-2.769 1.032-.757.358-1.8.905-3.136 1.62-2.98 1.6-6.369 2.4-10.169 2.4-2.39 0-4.653-.284-6.8-.862a19.914 19.914 0 0 1-5.905-2.622 19.518 19.518 0 0 1-4.663-4.252c-1.316-1.664-2.337-3.653-3.064-5.969-.736-2.315-1.094-4.831-1.094-7.568zm54.179 15.084v-12.368c0-1.506-.053-2.737-.169-3.685-.115-.957-.294-1.663-.536-2.115-.253-.453-.474-.758-.664-.916-.2-.147-.484-.295-.852-.442-.221-.084-.664-.169-1.327-.242a14.38 14.38 0 0 1-1.663-.295c-.452-.116-.673-.284-.673-.516 0-.074.02-.158.052-.232a.667.667 0 0 1 .2-.178c.095-.053.19-.095.285-.137.094-.042.22-.084.4-.127.179-.042.326-.073.463-.105.137-.031.326-.073.568-.115a5.11 5.11 0 0 0 .621-.116 68.74 68.74 0 0 0 3.495-.821c1.126-.295 1.958-.527 2.505-.674.537-.158.863-.232.968-.232.106 0 .19.01.264.043a.506.506 0 0 1 .168.105.44.44 0 0 1 .095.2c.021.095.032.168.042.22a3.456 3.456 0 0 1 .042.569l.59 5.432h.126c.632-1.484 1.737-2.842 3.295-4.074 1.568-1.232 3.473-1.853 5.737-1.853 1.831 0 3.137.316 3.915.958.78.643 1.18 1.432 1.18 2.38 0 .547-.19 1.073-.58 1.557-.379.474-.979.716-1.8.716-.557 0-1.031-.19-1.42-.568a3.802 3.802 0 0 1-.864-1.232c-.179-.442-.484-.853-.895-1.232-.41-.378-.916-.568-1.505-.568-1.61 0-3.095.758-4.463 2.274-1.369 1.526-2.042 3.505-2.042 5.958v12.431c0 1.58.179 2.621.537 3.126.357.506.979.811 1.863.906.842.084 1.39.179 1.653.284.252.095.378.242.378.431 0 .327-.337.495-1.01.495-.358 0-1.326-.031-2.916-.094a99.43 99.43 0 0 0-3.59-.095c-.789 0-1.968.032-3.568.095-1.59.063-2.61.094-3.063.094-.39 0-.59-.19-.59-.558 0-.305.442-.526 1.327-.652 1.337-.18 2.242-.569 2.716-1.169.473-.6.705-1.547.705-2.863zm21.284-8.515c0-4.2 1.474-7.706 4.421-10.548 2.948-2.842 6.632-4.253 11.053-4.253 2.495 0 4.874.59 7.147 1.769 2.264 1.179 4.137 2.905 5.611 5.147 1.463 2.253 2.2 4.769 2.2 7.547 0 4.232-1.474 7.77-4.421 10.611-2.948 2.832-6.642 4.253-11.053 4.253-1.852 0-3.673-.358-5.463-1.063a16.609 16.609 0 0 1-4.8-2.916c-1.4-1.232-2.537-2.769-3.4-4.61-.863-1.843-1.295-3.822-1.295-5.938zm8.326-10.106c-1.526 2.337-2.284 5.663-2.284 9.98 0 4.315.758 7.641 2.284 9.957 1.516 2.326 3.811 3.495 6.874 3.495 3.063 0 5.358-1.169 6.874-3.495 1.526-2.316 2.284-5.642 2.284-9.958s-.758-7.642-2.284-9.979c-1.516-2.326-3.81-3.495-6.874-3.495-3.063 0-5.358 1.169-6.874 3.495zm56 4.61v12.99c0 1.295.106 2.232.306 2.8.21.58.61.863 1.21.863.264 0 .695-.02 1.295-.084.59-.063.98-.095 1.169-.095.263 0 .442.064.526.18.084.126.127.326.127.589 0 .326-.222.537-.653.62-3.253.696-5.642 1.338-7.19 1.906-.41.168-.726.253-.958.253-.431 0-.705-.4-.831-1.2-.074-.421-.19-1.284-.337-2.6-.137-1.316-.21-2.2-.21-2.653h-.127c-1.252 2.305-2.695 3.958-4.316 4.958-1.631.99-3.663 1.495-6.105 1.495-2.695 0-4.863-.758-6.505-2.274-1.653-1.505-2.474-3.758-2.474-6.768v-15.169c0-1.105-.21-1.81-.642-2.116-.432-.294-1.263-.495-2.505-.6a6.729 6.729 0 0 1-.895-.094c-.2-.042-.39-.127-.569-.264-.168-.126-.263-.315-.263-.568 0-.474.442-.705 1.327-.705.294 0 1.115.031 2.473.094 1.358.064 2.316.095 2.895.095.453 0 1.042-.031 1.758-.095a39.843 39.843 0 0 1 1.168-.094c.253 0 .474.073.685.231a.8.8 0 0 1 .305.663l-.032.737c-.042.474-.073 1.316-.105 2.516-.031 1.2-.042 2.663-.042 4.39v10.547c0 4.832 1.558 7.253 4.684 7.253 1.421 0 2.674-.263 3.78-.8 1.094-.537 1.978-1.221 2.63-2.042.664-.821 1.2-1.821 1.633-3 .431-1.19.736-2.327.915-3.443.18-1.105.284-2.315.327-3.61v-9.095c0-1.105-.221-1.81-.664-2.115-.442-.295-1.284-.495-2.515-.6a6.727 6.727 0 0 1-.895-.095 1.242 1.242 0 0 1-.558-.264c-.158-.126-.242-.315-.242-.568 0-.474.442-.705 1.326-.705.305 0 1.116.031 2.421.094 1.306.064 2.18.095 2.632.095.579 0 1.242-.031 2.01-.095a57.6 57.6 0 0 1 1.2-.094c.243 0 .474.073.695.231a.79.79 0 0 1 .326.663l-.063.737c-.02.474-.052 1.316-.084 2.516-.032 1.2-.042 2.663-.042 4.39zm14.464 32.39v-35.62c0-1.054-.158-1.79-.463-2.211-.305-.422-.958-.632-1.948-.632h-.884c-.473 0-.79-.032-.926-.105-.148-.074-.22-.2-.22-.39 0-.305.357-.537 1.083-.705a88.308 88.308 0 0 0 2.926-.758 156.81 156.81 0 0 0 3.18-.895c.884-.252 1.378-.379 1.473-.379.295 0 .432.21.432.642v4.664h.126c2.095-3.537 5.232-5.306 9.41-5.306 1.906 0 3.737.358 5.474 1.074a14.646 14.646 0 0 1 4.59 3.01c1.326 1.285 2.379 2.895 3.158 4.822.79 1.937 1.179 4.042 1.179 6.326 0 2.716-.653 5.158-1.958 7.326-1.305 2.169-3.053 3.832-5.232 5.01-2.179 1.17-4.579 1.759-7.21 1.759-3.642 0-6.516-1.127-8.643-3.369v15.737c0 .737.211 1.337.632 1.8.421.464 1.021.706 1.779.727 1.337.063 2 .273 2 .642 0 .379-.337.558-1.01.558-.706 0-1.727-.032-3.085-.095a69.03 69.03 0 0 0-3.084-.084c-.705 0-1.737.02-3.105.084-1.369.063-2.4.095-3.095.095-.684 0-1.02-.18-1.02-.558 0-.369.683-.58 2.03-.642.769-.021 1.358-.263 1.78-.727.42-.463.631-1.063.631-1.8zm5.18-30.2v7.41c0 1.348.104 2.506.325 3.464a7.75 7.75 0 0 0 1.158 2.674c.558.82 1.38 1.442 2.485 1.863 1.094.42 2.473.631 4.115.631 2.769 0 4.969-1.157 6.6-3.484 1.621-2.326 2.432-5.505 2.432-9.526 0-4.137-.769-7.295-2.316-9.474-1.537-2.179-3.695-3.263-6.474-3.263-2.789 0-4.884.832-6.263 2.495-1.368 1.663-2.063 4.073-2.063 7.21z"></path>
    <path fill="#3c7117" fill-rule="evenodd"
          d="m180.486 540.938.282 1.583a9.786 9.786 0 0 1-.241-1.196 5.155 5.155 0 0 1-.041-.387z"></path>
    <path fill="#3c7117" fill-rule="evenodd"
          d="m180.472 540.455.473 2.647a9.277 9.277 0 0 1-.418-1.777 5.532 5.532 0 0 1-.054-.87z"></path>
    <path fill="#3c7217" fill-rule="evenodd"
          d="m180.486 540.118.598 3.353a7.965 7.965 0 0 1-.218-.609l-.392-2.197c-.004-.177 0-.36.012-.547z"></path>
    <path fill="#3d7217" fill-rule="evenodd"
          d="m180.508 539.838.7 3.923a7.427 7.427 0 0 1-.19-.457l-.54-3.027c.005-.144.015-.29.03-.44z"></path>
    <path fill="#3d7217" fill-rule="evenodd"
          d="m180.537 539.59.79 4.423a7 7 0 0 1-.177-.378l-.654-3.662c.01-.126.024-.254.041-.384z"></path>
    <path fill="#3d7317" fill-rule="evenodd"
          d="m180.57 539.364.866 4.847a6.427 6.427 0 0 1-.168-.324l-.746-4.177c.014-.113.03-.229.049-.346z"></path>
    <path fill="#3d7318" fill-rule="evenodd"
          d="m180.606 539.155.937 5.247a6.898 6.898 0 0 1-.161-.29l-.828-4.638c.015-.105.032-.211.052-.319z"></path>
    <path fill="#3d7318" fill-rule="evenodd"
          d="m180.644 538.96 1 5.602a6.05 6.05 0 0 1-.154-.252l-.902-5.052c.017-.098.036-.197.057-.298z"></path>
    <path fill="#3e7418" fill-rule="evenodd"
          d="m180.685 538.775 1.061 5.945c-.053-.076-.102-.157-.152-.238l-.969-5.426c.018-.093.038-.187.06-.281z"></path>
    <path fill="#3e7418" fill-rule="evenodd"
          d="m180.726 538.598 1.116 6.253a6.051 6.051 0 0 1-.146-.209l-1.032-5.776c.02-.089.04-.178.062-.268z"></path>
    <path fill="#3e7418" fill-rule="evenodd"
          d="m180.77 538.428 1.17 6.554a5.805 5.805 0 0 1-.146-.196l-1.089-6.1c.02-.086.042-.171.064-.258z"></path>
    <path fill="#3e7418" fill-rule="evenodd"
          d="m180.813 538.265 1.22 6.833a5.94 5.94 0 0 1-.142-.181l-1.143-6.405c.02-.082.042-.164.065-.247z"></path>
    <path fill="#3f7518" fill-rule="evenodd"
          d="m180.858 538.108 1.268 7.1c-.047-.054-.094-.108-.14-.164l-1.195-6.697c.021-.08.044-.16.067-.24z"></path>
    <path fill="#3f7518" fill-rule="evenodd"
          d="m180.904 537.955 1.314 7.361c-.047-.052-.092-.108-.139-.163l-1.243-6.967z"></path>
    <path fill="#3f7518" fill-rule="evenodd"
          d="m180.95 537.807 1.358 7.6a6.045 6.045 0 0 1-.136-.145l-1.29-7.231c.022-.074.045-.15.069-.224z"></path>
    <path fill="#3f7618" fill-rule="evenodd"
          d="m180.998 537.663 1.4 7.835a5.248 5.248 0 0 1-.135-.136l-1.336-7.481z"></path>
    <path fill="#3f7618" fill-rule="evenodd"
          d="m181.047 537.523 1.44 8.065c-.046-.044-.09-.09-.135-.135l-1.378-7.718.072-.212z"></path>
    <path fill="#407618" fill-rule="evenodd"
          d="m181.095 537.386 1.478 8.278c-.044-.04-.088-.079-.131-.12l-1.42-7.952.073-.206z"></path>
    <path fill="#407719" fill-rule="evenodd"
          d="m181.144 537.251 1.516 8.49a4.365 4.365 0 0 1-.13-.115l-1.46-8.173z"></path>
    <path fill="#407719" fill-rule="evenodd"
          d="m181.194 537.12 1.553 8.696c-.045-.036-.087-.076-.13-.114l-1.497-8.384z"></path>
    <path fill="#407719" fill-rule="evenodd"
          d="m181.244 536.992 1.587 8.889a4.273 4.273 0 0 1-.128-.103l-1.534-8.593z"></path>
    <path fill="#407819" fill-rule="evenodd" d="m181.295 536.865 1.62 9.08-.126-.096-1.57-8.793z"></path>
    <path fill="#417819" fill-rule="evenodd"
          d="m181.346 536.741 1.654 9.267c-.043-.03-.085-.064-.127-.096l-1.603-8.984z"></path>
    <path fill="#417819" fill-rule="evenodd"
          d="m181.397 536.62 1.687 9.446c-.043-.029-.084-.06-.126-.09l-1.638-9.174z"></path>
    <path fill="#417919" fill-rule="evenodd"
          d="m181.45 536.5 1.716 9.62c-.04-.028-.083-.052-.124-.08l-1.67-9.36z"></path>
    <path fill="#417919" fill-rule="evenodd"
          d="m181.501 536.382 1.748 9.79a4.353 4.353 0 0 1-.124-.08l-1.702-9.533z"></path>
    <path fill="#417919" fill-rule="evenodd"
          d="m181.554 536.266 1.778 9.96c-.043-.025-.083-.054-.124-.08l-1.733-9.705z"></path>
    <path fill="#427919" fill-rule="evenodd" d="m181.607 536.152 1.806 10.118-.122-.07-1.764-9.876z"></path>
    <path fill="#427a19" fill-rule="evenodd"
          d="m181.66 536.039 1.834 10.275c-.04-.022-.082-.043-.122-.066l-1.792-10.04z"></path>
    <path fill="#427a19" fill-rule="evenodd" d="m181.713 535.928 1.862 10.43-.122-.066-1.82-10.197Z"></path>
    <path fill="#427a1a" fill-rule="evenodd"
          d="m181.767 535.818 1.889 10.582c-.042-.02-.081-.043-.122-.065l-1.848-10.352z"></path>
    <path fill="#427b1a" fill-rule="evenodd"
          d="m181.82 535.71 1.915 10.725c-.04-.018-.08-.036-.12-.056l-1.875-10.506z"></path>
    <path fill="#437b1a" fill-rule="evenodd" d="m181.875 535.603 1.94 10.868-.12-.053-1.902-10.654z"></path>
    <path fill="#437b1a" fill-rule="evenodd" d="m181.929 535.498 1.965 11.009-.12-.054-1.927-10.796z"></path>
    <path fill="#437c1a" fill-rule="evenodd"
          d="m181.983 535.393 1.99 11.148c-.04-.016-.079-.035-.119-.052l-1.952-10.939z"></path>
    <path fill="#437c1a" fill-rule="evenodd"
          d="m182.038 535.29 2.014 11.28c-.04-.016-.08-.03-.118-.046l-1.978-11.079z"></path>
    <path fill="#447c1a" fill-rule="evenodd" d="m182.093 535.188 2.037 11.41-.117-.043-2.003-11.213z"></path>
    <path fill="#447d1a" fill-rule="evenodd" d="m182.148 535.087 2.06 11.539-.117-.043-2.026-11.344z"></path>
    <path fill="#447d1a" fill-rule="evenodd"
          d="m182.204 534.988 2.082 11.666c-.04-.013-.078-.029-.117-.042l-2.048-11.474z"></path>
    <path fill="#447d1a" fill-rule="evenodd" d="m182.26 534.89 2.103 11.786-.116-.036-2.071-11.602z"></path>
    <path fill="#447e1a" fill-rule="evenodd"
          d="m182.315 534.792 2.125 11.905c-.038-.01-.077-.02-.115-.032l-2.094-11.727z"></path>
    <path fill="#457e1a" fill-rule="evenodd" d="m182.37 534.695 2.147 12.024-.115-.032-2.115-11.847z"></path>
    <path fill="#457e1b" fill-rule="evenodd" d="m182.427 534.6 2.167 12.14-.115-.032-2.136-11.965z"></path>
    <path fill="#457e1b" fill-rule="evenodd"
          d="m182.483 534.505 2.188 12.253a4.2 4.2 0 0 1-.115-.029l-2.157-12.082z"></path>
    <path fill="#457f1b" fill-rule="evenodd"
          d="m182.54 534.41 2.207 12.364c-.038-.008-.077-.014-.114-.023l-2.178-12.2z"></path>
    <path fill="#457f1b" fill-rule="evenodd"
          d="m182.596 534.318 2.227 12.471a2.947 2.947 0 0 1-.114-.023l-2.198-12.308z"></path>
    <path fill="#467f1b" fill-rule="evenodd" d="m182.653 534.226 2.245 12.578-.114-.023-2.216-12.417z"></path>
    <path fill="#46801b" fill-rule="evenodd"
          d="m182.71 534.134 2.264 12.686c-.038-.006-.075-.016-.114-.023l-2.236-12.525z"></path>
    <path fill="#46801b" fill-rule="evenodd" d="m182.767 534.044 2.282 12.785-.113-.017-2.255-12.632z"></path>
    <path fill="#46801b" fill-rule="evenodd" d="m182.824 533.954 2.3 12.885-.112-.014-2.274-12.736z"></path>
    <path fill="#46811b" fill-rule="evenodd" d="m182.881 533.865 2.318 12.983-.112-.014-2.292-12.835z"></path>
    <path fill="#47811b" fill-rule="evenodd" d="m182.939 533.777 2.335 13.081-.113-.014-2.309-12.935z"></path>
    <path fill="#47811b" fill-rule="evenodd"
          d="m182.996 533.69 2.352 13.177c-.037-.003-.074-.01-.112-.014l-2.326-13.032Z"></path>
    <path fill="#47821b" fill-rule="evenodd" d="m183.054 533.602 2.368 13.269-.11-.008-2.345-13.13z"></path>
    <path fill="#47821c" fill-rule="evenodd" d="m183.112 533.516 2.385 13.36-.112-.007-2.36-13.223z"></path>
    <path fill="#47821c" fill-rule="evenodd" d="m183.17 533.43 2.4 13.45-.11-.008-2.377-13.313z"></path>
    <path fill="#48831c" fill-rule="evenodd"
          d="m183.227 533.346 2.417 13.538c-.037-.001-.073-.005-.11-.006l-2.394-13.404z"></path>
    <path fill="#48831c" fill-rule="evenodd"
          d="m183.286 533.261 2.432 13.625c-.037 0-.074-.003-.11-.005l-2.41-13.493z"></path>
    <path fill="#48831c" fill-rule="evenodd" d="m183.344 533.178 2.447 13.707h-.11l-2.424-13.582z"></path>
    <path fill="#48831c" fill-rule="evenodd"
          d="m183.402 533.095 2.462 13.79c-.037 0-.074.002-.11 0l-2.44-13.665Z"></path>
    <path fill="#49841c" fill-rule="evenodd" d="m183.46 533.013 2.477 13.87-.11.002-2.454-13.749z"></path>
    <path fill="#49841c" fill-rule="evenodd" d="m183.52 532.931 2.49 13.952-.11.001-2.469-13.83z"></path>
    <path fill="#49841c" fill-rule="evenodd" d="m183.578 532.85 2.505 14.03-.11.003-2.483-13.91z"></path>
    <path fill="#49851c" fill-rule="evenodd"
          d="m183.637 532.77 2.518 14.105c-.036.002-.072.006-.108.007l-2.498-13.992z"></path>
    <path fill="#49851c" fill-rule="evenodd" d="m183.696 532.69 2.531 14.18-.108.008-2.512-14.068z"></path>
    <path fill="#4a851c" fill-rule="evenodd" d="m183.755 532.61 2.544 14.254-.108.008-2.525-14.143z"></path>
    <path fill="#4a861d" fill-rule="evenodd"
          d="m183.814 532.532 2.557 14.327c-.036.004-.072.005-.108.008l-2.538-14.217Z"></path>
    <path fill="#4a861d" fill-rule="evenodd" d="m183.873 532.454 2.57 14.398-.108.01-2.55-14.291z"></path>
    <path fill="#4a861d" fill-rule="evenodd" d="m183.932 532.375 2.583 14.467-.108.014-2.564-14.364z"></path>
    <path fill="#4a871d" fill-rule="evenodd" d="m183.992 532.298 2.594 14.534-.107.015-2.576-14.433z"></path>
    <path fill="#4b871d" fill-rule="evenodd" d="m184.051 532.221 2.607 14.601-.107.015-2.59-14.5z"></path>
    <path fill="#4b871d" fill-rule="evenodd" d="m184.11 532.145 2.62 14.667-.108.015-2.6-14.567z"></path>
    <path fill="#4b881d" fill-rule="evenodd" d="m184.17 532.07 2.63 14.732-.107.015-2.612-14.634z"></path>
    <path fill="#4b881d" fill-rule="evenodd" d="m184.23 531.994 2.64 14.794-.106.02-2.624-14.7z"></path>
    <path fill="#4b881d" fill-rule="evenodd"
          d="m184.29 531.92 2.651 14.853c-.035.007-.07.016-.105.022l-2.636-14.763Z"></path>
    <path fill="#4c881d" fill-rule="evenodd" d="m184.35 531.845 2.662 14.914-.106.022-2.646-14.825z"></path>
    <path fill="#4c891d" fill-rule="evenodd" d="m184.41 531.77 2.673 14.975-.106.021-2.657-14.884z"></path>
    <path fill="#4c891d" fill-rule="evenodd" d="m184.47 531.697 2.683 15.033-.106.022-2.668-14.944z"></path>
    <path fill="#4c891e" fill-rule="evenodd" d="m184.53 531.624 2.693 15.09-.105.023-2.679-15.003z"></path>
    <path fill="#4c8a1e" fill-rule="evenodd"
          d="m184.59 531.552 2.703 15.143c-.035.009-.07.02-.104.028l-2.69-15.062z"></path>
    <path fill="#4d8a1e" fill-rule="evenodd" d="m184.65 531.48 2.713 15.196-.105.028-2.698-15.116z"></path>
    <path fill="#4d8a1e" fill-rule="evenodd" d="m184.71 531.408 2.723 15.25-.105.027-2.708-15.17z"></path>
    <path fill="#4d8b1e" fill-rule="evenodd" d="m184.771 531.337 2.732 15.302-.105.028-2.718-15.224z"></path>
    <path fill="#4d8b1e" fill-rule="evenodd" d="m184.832 531.265 2.74 15.355-.104.028-2.727-15.276z"></path>
    <path fill="#4e8b1e" fill-rule="evenodd" d="m184.892 531.195 2.75 15.402-.104.033-2.737-15.33z"></path>
    <path fill="#4e8c1e" fill-rule="evenodd" d="m184.953 531.125 2.758 15.45-.104.033-2.745-15.378z"></path>
    <path fill="#4e8c1e" fill-rule="evenodd" d="m185.014 531.055 2.766 15.496-.104.034-2.753-15.425z"></path>
    <path fill="#4e8c1e" fill-rule="evenodd" d="m185.074 530.986 2.775 15.543-.104.034-2.762-15.473z"></path>
    <path fill="#4e8d1e" fill-rule="evenodd" d="m185.135 530.917 2.783 15.589-.104.034-2.77-15.52z"></path>
    <path fill="#4f8d1e" fill-rule="evenodd" d="m185.196 530.848 2.79 15.632-.103.037-2.778-15.566.054-.062z"></path>
    <path fill="#4f8d1f" fill-rule="evenodd" d="m185.257 530.78 2.798 15.674-.102.04-2.788-15.612z"></path>
    <path fill="#4f8d1f" fill-rule="evenodd" d="m185.318 530.712 2.805 15.715-.102.04-2.794-15.653z"></path>
    <path fill="#4f8e1f" fill-rule="evenodd" d="m185.38 530.645 2.812 15.755-.103.04-2.801-15.694z"></path>
    <path fill="#4f8e1f" fill-rule="evenodd" d="m185.44 530.578 2.82 15.795-.102.04-2.81-15.735z"></path>
    <path fill="#508e1f" fill-rule="evenodd"
          d="m185.502 530.511 2.827 15.835c-.035.015-.069.026-.103.04l-2.816-15.775z"></path>
    <path fill="#508f1f" fill-rule="evenodd" d="m185.563 530.445 2.833 15.87-.102.045-2.823-15.816z"></path>
    <path fill="#508f1f" fill-rule="evenodd" d="m185.624 530.379 2.84 15.905-.102.047-2.83-15.853z"></path>
    <path fill="#508f1f" fill-rule="evenodd" d="m185.686 530.313 2.846 15.94-.102.047-2.836-15.889z"></path>
    <path fill="#50901f" fill-rule="evenodd" d="m185.747 530.247 2.852 15.976-.101.046-2.843-15.923z"></path>
    <path fill="#51901f" fill-rule="evenodd" d="m185.809 530.182 2.858 16.01-.102.046-2.849-15.958z"></path>
    <path fill="#51901f" fill-rule="evenodd" d="m185.87 530.117 2.864 16.043-.1.047-2.856-15.993z"></path>
    <path fill="#51911f" fill-rule="evenodd"
          d="m185.932 530.052 2.87 16.073c-.034.017-.067.036-.101.052l-2.861-16.028z"></path>
    <path fill="#519120" fill-rule="evenodd" d="m185.994 529.988 2.874 16.102-.1.052-2.867-16.057z"></path>
    <path fill="#519120" fill-rule="evenodd" d="m186.056 529.924 2.88 16.131-.101.053-2.872-16.088z"></path>
    <path fill="#529220" fill-rule="evenodd" d="m186.117 529.86 2.885 16.16-.1.053-2.877-16.117z"></path>
    <path fill="#529220" fill-rule="evenodd" d="m186.18 529.797 2.89 16.188-.101.053-2.883-16.146z"></path>
    <path fill="#529220" fill-rule="evenodd" d="m186.241 529.734 2.894 16.214-.1.055-2.887-16.175z"></path>
    <path fill="#529220" fill-rule="evenodd"
          d="m186.303 529.67 2.899 16.24c-.033.018-.066.04-.1.058l-2.892-16.203z"></path>
    <path fill="#539320" fill-rule="evenodd" d="m186.365 529.608 2.903 16.263-.1.058-2.896-16.227z"></path>
    <path fill="#539320" fill-rule="evenodd" d="m186.427 529.546 2.907 16.286-.1.058-2.9-16.25z"></path>
    <path fill="#539320" fill-rule="evenodd" d="m186.489 529.484 2.911 16.309-.1.058-2.904-16.274z"></path>
    <path fill="#539420" fill-rule="evenodd" d="m186.551 529.422 2.916 16.332-.1.058-2.909-16.297z"></path>
    <path fill="#539420" fill-rule="evenodd" d="m186.613 529.36 2.92 16.352-.1.061-2.913-16.32z"></path>
    <path fill="#549420" fill-rule="evenodd" d="m186.675 529.3 2.923 16.369-.098.064-2.918-16.342z"></path>
    <path fill="#549521" fill-rule="evenodd" d="m186.738 529.238 2.925 16.388-.098.064-2.92-16.36z"></path>
    <path fill="#549521" fill-rule="evenodd" d="m186.8 529.177 2.929 16.406-.098.064-2.924-16.378z"></path>
    <path fill="#549521" fill-rule="evenodd" d="m186.863 529.117 2.931 16.424-.098.064-2.927-16.398z"></path>
    <path fill="#549621" fill-rule="evenodd" d="m186.925 529.056 2.935 16.441-.098.065-2.93-16.415z"></path>
    <path fill="#559621" fill-rule="evenodd" d="m186.987 528.996 2.938 16.454-.098.069-2.933-16.432z"></path>
    <path fill="#559621" fill-rule="evenodd" d="m187.05 528.936 2.94 16.467-.098.07-2.936-16.447z"></path>
    <path fill="#559721" fill-rule="evenodd" d="m187.112 528.877 2.942 16.48-.097.07-2.938-16.46z"></path>
    <path fill="#559721" fill-rule="evenodd" d="m187.175 528.817 2.944 16.493-.097.07-2.94-16.473z"></path>
    <path fill="#559721" fill-rule="evenodd" d="m187.238 528.758 2.946 16.505-.097.07-2.943-16.486z"></path>
    <path fill="#569721" fill-rule="evenodd" d="m187.3 528.7 2.948 16.515-.097.071-2.945-16.498z"></path>
    <path fill="#569821" fill-rule="evenodd" d="m187.363 528.641 2.95 16.523-.097.075-2.947-16.51z"></path>
    <path fill="#569821" fill-rule="evenodd" d="m187.425 528.583 2.952 16.53-.096.076-2.95-16.519z"></path>
    <path fill="#569821" fill-rule="evenodd" d="m187.488 528.524 2.953 16.537-.096.077-2.95-16.526z"></path>
    <path fill="#569822" fill-rule="evenodd" d="m187.551 528.466 2.954 16.545-.096.076-2.952-16.533z"></path>
    <path fill="#579922" fill-rule="evenodd"
          d="m187.614 528.409 2.955 16.55c-.032.027-.064.051-.096.077l-2.953-16.54z"></path>
    <path fill="#579922" fill-rule="evenodd" d="m187.677 528.351 2.955 16.556-.095.078-2.954-16.547z"></path>
    <path fill="#579922" fill-rule="evenodd" d="m187.74 528.294 2.956 16.558-.095.082-2.955-16.554z"></path>
    <path fill="#579a22" fill-rule="evenodd" d="m187.803 528.237 2.956 16.56-.095.082-2.956-16.556z"></path>
    <path fill="#579a22" fill-rule="evenodd" d="m187.866 528.18 2.956 16.56-.094.084-2.957-16.559z"></path>
    <path fill="#579a22" fill-rule="evenodd" d="m187.929 528.123 2.957 16.563-.095.083-2.957-16.56z"></path>
    <path fill="#589a22" fill-rule="evenodd" d="m187.992 528.067 2.957 16.564-.095.082-2.957-16.561z"></path>
    <path fill="#589b22" fill-rule="evenodd" d="m188.055 528.01 2.957 16.563-.095.085-2.956-16.563z"></path>
    <path fill="#589b22" fill-rule="evenodd"
          d="m188.118 527.955 2.956 16.558c-.031.03-.062.061-.094.09l-2.956-16.564z"></path>
    <path fill="#589b22" fill-rule="evenodd" d="m188.181 527.9 2.956 16.554-.094.09-2.956-16.562z"></path>
    <path fill="#589c22" fill-rule="evenodd" d="m188.245 527.844 2.955 16.55-.094.09-2.956-16.557z"></path>
    <path fill="#599c22" fill-rule="evenodd" d="m188.308 527.788 2.954 16.546-.094.09-2.955-16.553z"></path>
    <path fill="#599c22" fill-rule="evenodd" d="m188.372 527.733 2.953 16.542-.094.09-2.954-16.549z"></path>
    <path fill="#599c23" fill-rule="evenodd" d="m188.435 527.679 2.951 16.533-.093.093-2.953-16.544z"></path>
    <path fill="#599d23" fill-rule="evenodd" d="m188.499 527.624 2.95 16.524-.093.096-2.953-16.538z"></path>
    <path fill="#599d23" fill-rule="evenodd" d="m188.562 527.57 2.948 16.514-.093.096-2.95-16.529z"></path>
    <path fill="#599d23" fill-rule="evenodd" d="m188.625 527.515 2.947 16.505-.093.096-2.95-16.52z"></path>
    <path fill="#5a9d23" fill-rule="evenodd" d="m188.689 527.461 2.944 16.495-.092.096-2.948-16.51z"></path>
    <path fill="#5a9e23" fill-rule="evenodd"
          d="m188.752 527.407 2.943 16.485c-.03.033-.062.063-.092.096l-2.946-16.5z"></path>
    <path fill="#5a9e23" fill-rule="evenodd" d="m188.816 527.354 2.94 16.47-.092.1-2.944-16.49z"></path>
    <path fill="#5a9e23" fill-rule="evenodd" d="m188.88 527.3 2.937 16.455-.091.102-2.942-16.476z"></path>
    <path fill="#5a9f23" fill-rule="evenodd" d="m188.943 527.247 2.935 16.439-.092.103-2.938-16.462z"></path>
    <path fill="#5b9f23" fill-rule="evenodd" d="m189.007 527.195 2.932 16.422-.092.103-2.935-16.446z"></path>
    <path fill="#5b9f23" fill-rule="evenodd" d="m189.07 527.142 2.93 16.407-.092.103-2.933-16.431z"></path>
    <path fill="#5b9f23" fill-rule="evenodd" d="m189.135 527.09 2.926 16.389-.092.104-2.93-16.415z"></path>
    <path fill="#5ba023" fill-rule="evenodd" d="m189.198 527.037 2.923 16.368-.09.11-2.928-16.399z"></path>
    <path fill="#5ba024" fill-rule="evenodd" d="m189.262 526.985 2.919 16.347-.09.11-2.924-16.378z"></path>
    <path fill="#5ca024" fill-rule="evenodd" d="m189.326 526.933 2.915 16.325-.09.11-2.92-16.357z"></path>
    <path fill="#5ca124" fill-rule="evenodd" d="m189.39 526.882 2.91 16.303-.09.11-2.916-16.335z"></path>
    <path fill="#5ca124" fill-rule="evenodd" d="m189.454 526.83 2.907 16.282-.09.11-2.913-16.314z"></path>
    <path fill="#5ca124" fill-rule="evenodd" d="m189.518 526.78 2.902 16.256-.09.112-2.908-16.292z"></path>
    <path fill="#5ca124" fill-rule="evenodd" d="m189.582 526.729 2.897 16.228-.088.118-2.905-16.27z"></path>
    <path fill="#5ca224" fill-rule="evenodd" d="m189.646 526.678 2.893 16.2-.089.118-2.9-16.242z"></path>
    <path fill="#5da224" fill-rule="evenodd" d="m189.71 526.627 2.888 16.173-.09.118-2.894-16.215z"></path>
    <path fill="#5da224" fill-rule="evenodd" d="m189.775 526.577 2.882 16.145-.089.117-2.89-16.186z"></path>
    <path fill="#5da224" fill-rule="evenodd"
          d="m189.839 526.527 2.877 16.117c-.03.04-.06.077-.089.117l-2.884-16.159z"></path>
    <path fill="#5da324" fill-rule="evenodd" d="m189.903 526.477 2.872 16.084-.088.122-2.88-16.13z"></path>
    <path fill="#5da324" fill-rule="evenodd"
          d="m189.968 526.428 2.865 16.049c-.03.041-.058.085-.088.126l-2.874-16.101Z"></path>
    <path fill="#5ea324" fill-rule="evenodd" d="m190.032 526.379 2.859 16.014-.088.126-2.868-16.066z"></path>
    <path fill="#5ea424" fill-rule="evenodd" d="m190.096 526.33 2.853 15.98-.087.125L190 526.403z"></path>
    <path fill="#5ea425" fill-rule="evenodd" d="m190.161 526.28 2.846 15.945-.087.126-2.856-15.997z"></path>
    <path fill="#5ea425" fill-rule="evenodd" d="m190.225 526.232 2.84 15.908-.087.127-2.85-15.962z"></path>
    <path fill="#5ea425" fill-rule="evenodd"
          d="m190.29 526.184 2.832 15.867c-.029.044-.056.09-.086.133l-2.843-15.927z"></path>
    <path fill="#5ea525" fill-rule="evenodd" d="m190.354 526.135 2.826 15.827-.086.134-2.836-15.888z"></path>
    <path fill="#5fa525" fill-rule="evenodd" d="m190.419 526.088 2.818 15.785-.086.133-2.829-15.847z"></path>
    <path fill="#5fa525" fill-rule="evenodd" d="m190.484 526.04 2.81 15.743-.086.134-2.821-15.805z"></path>
    <path fill="#5fa625" fill-rule="evenodd" d="m190.548 525.992 2.803 15.702-.085.134-2.815-15.764z"></path>
    <path fill="#5fa625" fill-rule="evenodd" d="m190.613 525.946 2.795 15.654-.085.138-2.807-15.722z"></path>
    <path fill="#5fa625" fill-rule="evenodd" d="m190.678 525.899 2.786 15.606-.084.143-2.8-15.679z"></path>
    <path fill="#60a625" fill-rule="evenodd" d="m190.743 525.852 2.777 15.558-.084.142-2.79-15.63z"></path>
    <path fill="#60a725" fill-rule="evenodd" d="m190.808 525.806 2.768 15.508-.084.143-2.782-15.582z"></path>
    <path fill="#60a725" fill-rule="evenodd" d="m190.873 525.76 2.76 15.46-.085.142-2.773-15.533z"></path>
    <path fill="#60a725" fill-rule="evenodd" d="m190.938 525.713 2.75 15.409-.084.145-2.764-15.485z"></path>
    <path fill="#60a726" fill-rule="evenodd"
          d="m191.003 525.668 2.74 15.353c-.027.05-.054.101-.082.15l-2.756-15.434z"></path>
    <path fill="#60a826" fill-rule="evenodd" d="m191.068 525.623 2.73 15.296-.082.152-2.746-15.38Z"></path>
    <path fill="#61a826" fill-rule="evenodd" d="m191.133 525.578 2.72 15.24-.082.152-2.736-15.325z"></path>
    <path fill="#61a826" fill-rule="evenodd" d="m191.198 525.533 2.71 15.183-.082.152L191.1 525.6z"></path>
    <path fill="#61a926" fill-rule="evenodd" d="m191.263 525.488 2.7 15.126-.082.153-2.715-15.212z"></path>
    <path fill="#61a926" fill-rule="evenodd" d="m191.329 525.444 2.688 15.063-.081.158-2.706-15.155z"></path>
    <path fill="#61a926" fill-rule="evenodd" d="m191.394 525.4 2.677 14.998-.08.163-2.695-15.095z"></path>
    <path fill="#62a926" fill-rule="evenodd" d="m191.459 525.356 2.666 14.934-.08.162-2.684-15.03z"></path>
    <path fill="#62aa26" fill-rule="evenodd" d="m191.525 525.313 2.654 14.869-.08.162-2.673-14.966z"></path>
    <path fill="#62aa26" fill-rule="evenodd" d="m191.59 525.27 2.643 14.803-.081.163-2.66-14.901z"></path>
    <path fill="#62aa26" fill-rule="evenodd" d="m191.656 525.227 2.63 14.733-.08.167-2.649-14.836z"></path>
    <path fill="#62ab26" fill-rule="evenodd" d="m191.721 525.185 2.617 14.66-.079.173-2.636-14.77z"></path>
    <path fill="#63ab26" fill-rule="evenodd" d="m191.787 525.143 2.604 14.586-.079.173-2.624-14.696z"></path>
    <path fill="#63ab26" fill-rule="evenodd" d="m191.852 525.1 2.591 14.513-.079.174-2.61-14.623z"></path>
    <path fill="#63ab27" fill-rule="evenodd" d="m191.918 525.06 2.578 14.438-.079.173-2.597-14.55z"></path>
    <path fill="#63ac27" fill-rule="evenodd" d="m191.984 525.018 2.564 14.36-.078.177-2.585-14.475z"></path>
    <path fill="#63ac27" fill-rule="evenodd"
          d="m192.05 524.977 2.549 14.277c-.026.061-.05.125-.077.186l-2.57-14.401z"></path>
    <path fill="#63ac27" fill-rule="evenodd" d="m192.116 524.936 2.534 14.195-.077.185-2.556-14.319z"></path>
    <path fill="#64ac27" fill-rule="evenodd" d="m192.182 524.896 2.519 14.111-.077.185-2.541-14.235z"></path>
    <path fill="#64ad27" fill-rule="evenodd"
          d="m192.248 524.856 2.504 14.028c-.025.063-.051.123-.077.185l-2.526-14.152z"></path>
    <path fill="#64ad27" fill-rule="evenodd" d="m192.314 524.817 2.488 13.938-.076.19-2.511-14.069z"></path>
    <path fill="#64ad27" fill-rule="evenodd" d="m192.38 524.778 2.472 13.845-.074.198-2.497-13.984z"></path>
    <path fill="#64ae27" fill-rule="evenodd" d="m192.447 524.74 2.455 13.751-.075.198-2.48-13.891z"></path>
    <path fill="#65ae27" fill-rule="evenodd" d="m192.513 524.7 2.438 13.659-.074.198-2.464-13.798z"></path>
    <path fill="#65ae27" fill-rule="evenodd" d="m192.58 524.663 2.42 13.564-.074.198-2.446-13.705z"></path>
    <path fill="#65ae27" fill-rule="evenodd" d="m192.645 524.625 2.404 13.463-.073.205-2.43-13.611z"></path>
    <path fill="#65af27" fill-rule="evenodd"
          d="m192.712 524.588 2.385 13.36c-.024.07-.047.142-.072.211l-2.413-13.515z"></path>
    <path fill="#65af28" fill-rule="evenodd" d="m192.779 524.552 2.366 13.253-.072.213-2.394-13.412z"></path>
    <path fill="#65af28" fill-rule="evenodd" d="m192.845 524.515 2.348 13.149-.072.212-2.375-13.306z"></path>
    <path fill="#66b028" fill-rule="evenodd" d="m192.912 524.48 2.329 13.043-.072.212-2.357-13.202z"></path>
    <path fill="#66b028" fill-rule="evenodd" d="m192.98 524.444 2.307 12.927-.07.222-2.338-13.096z"></path>
    <path fill="#66b028" fill-rule="evenodd"
          d="m193.046 524.409 2.287 12.81c-.024.076-.045.153-.07.227l-2.317-12.984z"></path>
    <path fill="#66b028" fill-rule="evenodd" d="m193.113 524.375 2.266 12.692-.07.228-2.296-12.868z"></path>
    <path fill="#66b128" fill-rule="evenodd" d="m193.18 524.34 2.245 12.576-.07.227-2.275-12.751z"></path>
    <path fill="#67b128" fill-rule="evenodd" d="m193.247 524.307 2.223 12.451-.068.233-2.255-12.633z"></path>
    <path fill="#67b128" fill-rule="evenodd"
          d="m193.315 524.274 2.2 12.32c-.023.082-.044.165-.067.245l-2.234-12.515z"></path>
    <path fill="#67b128" fill-rule="evenodd" d="m193.382 524.242 2.176 12.19-.066.244-2.211-12.385z"></path>
    <path fill="#67b228" fill-rule="evenodd" d="m193.45 524.21 2.152 12.058-.066.245-2.188-12.255z"></path>
    <path fill="#67b228" fill-rule="evenodd"
          d="m193.517 524.179 2.129 11.924c-.021.084-.044.164-.066.247l-2.164-12.124z"></path>
    <path fill="#68b228" fill-rule="evenodd"
          d="m193.585 524.148 2.102 11.78c-.02.086-.041.173-.063.258l-2.14-11.991z"></path>
    <path fill="#68b328" fill-rule="evenodd"
          d="m193.653 524.118 2.076 11.633c-.02.088-.04.177-.062.264l-2.116-11.851z"></path>
    <path fill="#68b329" fill-rule="evenodd" d="m193.72 524.09 2.051 11.484-.063.265-2.09-11.706z"></path>
    <path fill="#68b329" fill-rule="evenodd"
          d="m193.788 524.06 2.025 11.338c-.02.09-.042.176-.063.264l-2.063-11.558z"></path>
    <path fill="#68b329" fill-rule="evenodd" d="m193.857 524.032 1.995 11.177-.06.277-2.038-11.411z"></path>
    <path fill="#68b429" fill-rule="evenodd" d="m193.925 524.005 1.966 11.013-.058.286-2.01-11.258z"></path>
    <path fill="#69b429" fill-rule="evenodd" d="m193.994 523.979 1.936 10.848-.058.286-1.98-11.094z"></path>
    <path fill="#69b429" fill-rule="evenodd"
          d="m194.062 523.953 1.907 10.683c-.018.097-.04.19-.058.286l-1.952-10.93z"></path>
    <path fill="#69b529" fill-rule="evenodd" d="m194.13 523.928 1.876 10.503-.056.3-1.922-10.765z"></path>
    <path fill="#69b529" fill-rule="evenodd"
          d="m194.2 523.905 1.842 10.318c-.018.104-.035.209-.054.311l-1.891-10.593z"></path>
    <path fill="#69b529" fill-rule="evenodd"
          d="m194.269 523.882 1.809 10.134c-.017.104-.036.208-.054.31l-1.859-10.41z"></path>
    <path fill="#6ab529" fill-rule="evenodd"
          d="m194.338 523.86 1.776 9.946c-.017.106-.036.21-.054.313l-1.826-10.226z"></path>
    <path fill="#6ab629" fill-rule="evenodd" d="m194.408 523.84 1.739 9.74-.05.332-1.794-10.042z"></path>
    <path fill="#6ab629" fill-rule="evenodd"
          d="m194.477 523.819 1.702 9.534c-.016.114-.031.228-.049.34l-1.757-9.844z"></path>
    <path fill="#6ab629" fill-rule="evenodd"
          d="m194.547 523.8 1.665 9.327c-.015.114-.032.227-.049.34l-1.72-9.638z"></path>
    <path fill="#6ab62a" fill-rule="evenodd" d="m194.617 523.783 1.626 9.106-.047.35-1.684-9.43z"></path>
    <path fill="#6ab72a" fill-rule="evenodd"
          d="m194.687 523.767 1.584 8.873c-.014.125-.027.25-.043.373l-1.646-9.221z"></path>
    <path fill="#6bb72a" fill-rule="evenodd" d="m194.758 523.752 1.542 8.64-.043.372-1.605-8.99z"></path>
    <path fill="#6bb72a" fill-rule="evenodd"
          d="m194.83 523.74 1.498 8.398c-.012.128-.028.251-.042.377l-1.563-8.755z"></path>
    <path fill="#6bb82a" fill-rule="evenodd"
          d="m194.9 523.728 1.452 8.135c-.012.135-.024.27-.038.404l-1.52-8.521z"></path>
    <path fill="#6bb82a" fill-rule="evenodd"
          d="m194.972 523.719 1.404 7.869c-.011.138-.023.276-.036.413l-1.475-8.267.107-.015z"></path>
    <path fill="#6bb82a" fill-rule="evenodd"
          d="m195.043 523.71 1.357 7.602c-.01.14-.024.275-.036.413l-1.428-8.002c.036-.005.072-.01.107-.012z"></path>
    <path fill="#6cb82a" fill-rule="evenodd"
          d="m195.116 523.707 1.302 7.298c-.01.15-.018.298-.03.445l-1.38-7.735.108-.009z"></path>
    <path fill="#6cb92a" fill-rule="evenodd"
          d="m195.188 523.703 1.249 6.994a27.3 27.3 0 0 1-.028.462l-1.33-7.45c.037-.003.073-.006.109-.007z"></path>
    <path fill="#6cb92a" fill-rule="evenodd"
          d="m195.261 523.704 1.193 6.682c-.007.157-.017.31-.026.465l-1.276-7.146c.037-.001.074-.002.11-.001z"></path>
    <path fill="#6cb92a" fill-rule="evenodd"
          d="m195.335 523.707 1.13 6.332c-.006.169-.01.338-.019.505l-1.221-6.84a2 2 0 0 1 .11.002z"></path>
    <path fill="#6cba2a" fill-rule="evenodd"
          d="m195.41 523.713 1.067 5.98c-.004.174-.01.347-.017.52l-1.162-6.51c.038.002.075.006.112.01z"></path>
    <path fill="#6dba2a" fill-rule="evenodd"
          d="m195.485 523.724.999 5.598c-.002.183-.007.364-.013.544l-1.099-6.156.113.014z"></path>
    <path fill="#6dba2a" fill-rule="evenodd"
          d="m195.56 523.74.926 5.187c0 .198 0 .397-.004.592l-1.035-5.801c.039.006.077.013.113.022z"></path>
    <path fill="#6dba2b" fill-rule="evenodd"
          d="m195.637 523.76.85 4.764c.003.203 0 .401-.001.6l-.963-5.393c.04.008.078.017.115.029z"></path>
    <path fill="#6dbb2b" fill-rule="evenodd"
          d="m195.716 523.79.763 4.274c.005.223.008.446.009.665l-.89-4.98c.041.012.08.025.118.041z"></path>
    <path fill="#6dbb2b" fill-rule="evenodd"
          d="m195.796 523.828.674 3.775c.008.233.01.462.013.691l-.806-4.52a.904.904 0 0 1 .119.054z"></path>
    <path fill="#6dbb2b" fill-rule="evenodd"
          d="m195.879 523.88.566 3.174c.012.263.023.523.03.78l-.72-4.026c.044.02.085.044.124.072z"></path>
    <path fill="#6ebb2b" fill-rule="evenodd"
          d="m195.964 523.949.452 2.531c.017.287.03.57.041.85l-.62-3.479a.8.8 0 0 1 .127.098z"></path>
    <path fill="#6ebc2b" fill-rule="evenodd"
          d="m196.055 524.049.314 1.76c.025.328.046.652.064.972l-.513-2.87c.05.04.095.085.135.138z"></path>
    <path fill="#6ebc2b" fill-rule="evenodd"
          d="m196.392 526.144-.383-2.15c.127.141.213.334.25.586.056.532.098 1.051.133 1.564z"></path>
</svg>
