<?xml version="1.0" encoding="UTF-8"?> <!--Uploaded to: SVG Repo, www.svgrepo.com, Generator: SVG Repo Mixer Tools--> <svg xmlns="http://www.w3.org/2000/svg" xml:space="preserve" viewBox="0 0 512 512" fill="#3c5458"> <path d="M175 12c-33 0-59 36-59 81s26 82 59 82c32 0 58-37 58-82s-26-81-58-81zm0 139c-19 0-35-26-35-58 0-31 16-58 35-58 18 0 34 27 34 58 0 32-16 58-34 58zM337 12c-32 0-58 36-58 81s26 82 58 82c33 0 59-37 59-82s-26-81-59-81zm0 139c-18 0-34-26-34-58 0-31 16-58 34-58 19 0 35 27 35 58 0 32-16 58-35 58zm117 12c-33 0-58 36-58 81s25 82 58 82c32 0 58-36 58-82s-26-81-58-81zm0 140c-19 0-35-27-35-59s16-58 35-58 35 27 35 58-17 59-35 59zM58 163c-32 0-58 36-58 81s26 82 58 82c33 0 58-36 58-82s-25-81-58-81zm0 140c-18 0-35-27-35-59s17-58 35-58 35 27 35 58-16 59-35 59zm336 33-22-10c-15-7-26-22-31-40l-7-25a84 84 0 0 0-78-63c-35 0-67 25-77 63l-7 25c-4 18-16 33-31 40l-22 10a87 87 0 0 0-49 79c0 27 11 52 30 67 18 14 38 20 61 16l33-6c8-1 18-4 26-8 6-2 8-9 6-15s-10-8-15-6l-20 6-34 6c-15 2-29-1-42-12-14-9-22-28-22-48 0-25 14-48 35-58l22-10c21-11 37-30 44-55l7-26c7-26 29-45 55-45s48 19 55 45l7 26c7 25 23 44 44 55l22 10a66 66 0 0 1 13 107 50 50 0 0 1-42 12l-34-6c-7-1-14-3-20-6-5-2-12 0-15 6-2 6 0 13 6 15 8 4 16 6 26 8l33 6 13 1c18 0 34-5 48-17 19-16 30-41 30-68 0-33-18-65-48-79z"></path> </svg> 