<?xml version="1.0" encoding="UTF-8"?> <!--Uploaded to: SVG Repo, www.svgrepo.com, Generator: SVG Repo Mixer Tools--> <svg xmlns="http://www.w3.org/2000/svg" viewBox="0 0 32 32" fill="#3c5458"> <path d="m9.1 30.5-1.3-6.3-6.3-1.4 1.3-2.5 5.8-.3 1.3-1.6 5.3-5.3-11-5.4L7 4.9l14 2.5 4.9-5c.5-.6 1.5-.9 2.6-.9.8 0 1.4.2 1.4.2h.3l.1.3c.5 1.6.2 3.3-.7 4.2l-5 5L27.2 25l-2.8 2.8-5.3-11-5 5-2 2-.4 5.3L9 30.5zm-6-8.4 5.6 1.2 1.2 5.5.7-.3.4-5.3.1-.1 2.2-2 6-6 5.3 11 1.4-1.4-2.5-13.9L29 5.5c.4-.5.7-1.6.5-2.8a6 6 0 0 0-1-.1c-.5 0-1.3.1-1.8.6l-5.3 5.3-14-2.4L6 7.4l11 5.4-6.3 6.3-1.4 1.7-.2.2-5.7.4-.3.7z"></path> </svg> 