<?xml version="1.0" encoding="UTF-8"?> <!--Uploaded to: SVG Repo, www.svgrepo.com, Generator: SVG Repo Mixer Tools--> <svg xmlns="http://www.w3.org/2000/svg" xml:space="preserve" viewBox="0 0 489.7 489.7" fill="#3c5458"> <path d="M0 245c0 119 110 216 245 216 45 0 88-11 126-31a142 142 0 0 0 91 14 19 19 0 0 0 7-34c-12-8-22-20-29-35 32-37 50-83 50-130 0-119-110-216-245-216S0 126 0 245zm25 0c0-106 98-192 220-192s220 86 220 192c0 44-16 85-48 120-3 3-4 8-3 12 7 18 17 33 30 44-25 1-48-4-66-15-2-2-4-2-7-2-2 0-4 0-6 2-36 20-77 31-120 31-122 0-220-86-220-192z"></path> <circle cx="245" cy="244.9" r="15.7"></circle> <circle cx="312.6" cy="244.9" r="15.7"></circle> <circle cx="177.4" cy="244.9" r="15.7"></circle> </svg> 